<svg xmlns="http://www.w3.org/2000/svg" width="760" height="380"><rect width="100%" height="100%" fill="white"/><style>text{font:14px sans-serif;fill:#202124}.grid{stroke:#ddd}.line{stroke:#7700ff;stroke-width:3;fill:none}</style><text x="20" y="22" font-weight="bold">Requested rate versus actual payload</text>
<line class="grid" x1="70" y1="300.0" x2="740" y2="300.0"/><text x="62" y="304.0" text-anchor="end">0</text>
<line class="grid" x1="70" y1="255.0" x2="740" y2="255.0"/><text x="62" y="259.0" text-anchor="end">20</text>
<line class="grid" x1="70" y1="210.0" x2="740" y2="210.0"/><text x="62" y="214.0" text-anchor="end">40</text>
<line class="grid" x1="70" y1="165.0" x2="740" y2="165.0"/><text x="62" y="169.0" text-anchor="end">60</text>
<line class="grid" x1="70" y1="120.0" x2="740" y2="120.0"/><text x="62" y="124.0" text-anchor="end">80</text>
<line class="grid" x1="70" y1="75.0" x2="740" y2="75.0"/><text x="62" y="79.0" text-anchor="end">100</text>
<line class="grid" x1="70" y1="30.0" x2="740" y2="30.0"/><text x="62" y="34.0" text-anchor="end">120</text>
<line class="grid" x1="70" y1="300" x2="740" y2="300"/>
<text x="70.0" y="325" text-anchor="middle">0</text>
<text x="202.0" y="325" text-anchor="middle">100</text>
<text x="334.0" y="325" text-anchor="middle">200</text>
<text x="466.0" y="325" text-anchor="middle">300</text>
<text x="598.0" y="325" text-anchor="middle">400</text>
<text x="730.0" y="325" text-anchor="middle">500</text>
<polyline class="line" points="103.0,273.8 202.0,235.3 334.0,206.6 532.0,174.4 730.0,66.9"/>
<circle cx="103.0" cy="273.8" r="5" fill="#7700ff"/><text x="109.0" y="263.8" text-anchor="start">11.6</text>
<circle cx="202.0" cy="235.3" r="5" fill="#7700ff"/><text x="202.0" y="225.3" text-anchor="middle">28.8</text>
<circle cx="334.0" cy="206.6" r="5" fill="#7700ff"/><text x="334.0" y="196.6" text-anchor="middle">41.5</text>
<circle cx="532.0" cy="174.4" r="5" fill="#7700ff"/><text x="532.0" y="164.4" text-anchor="middle">55.8</text>
<circle cx="730.0" cy="66.9" r="5" fill="#7700ff"/><text x="730.0" y="56.9" text-anchor="middle">103.6</text>
<text x="380" y="370" text-anchor="middle">Requested rate (Mbit/s)</text><text x="18" y="165" transform="rotate(-90 18 165)" text-anchor="middle">Actual payload (Mbit/s)</text></svg>
