<svg xmlns="http://www.w3.org/2000/svg" width="1100" height="610" viewBox="0 0 1100 610">
<rect width="1100" height="610" fill="#111421"/>
<text x="35" y="38" font-family="sans-serif" font-size="25" fill="#eeeaf8">Removing the extra overdue poll wait — loopback component only</text>
<text x="35" y="68" font-family="sans-serif" font-size="15" fill="#b8b5ce">Two independent runs, 14 alternating pairs each • real typed sockets and extracted poll method</text>
<text x="78" y="112" font-family="sans-serif" font-size="20" fill="#eeeaf8">Both timeout choices</text>
<path d="M78,427.0h425" stroke="#30374d"/>
<text x="26" y="432.0" font-family="sans-serif" font-size="13" fill="#b8b5ce">0.00</text>
<path d="M78,369.0h425" stroke="#30374d"/>
<text x="26" y="374.0" font-family="sans-serif" font-size="13" fill="#b8b5ce">0.23</text>
<path d="M78,311.0h425" stroke="#30374d"/>
<text x="26" y="316.0" font-family="sans-serif" font-size="13" fill="#b8b5ce">0.46</text>
<path d="M78,253.0h425" stroke="#30374d"/>
<text x="26" y="258.0" font-family="sans-serif" font-size="13" fill="#b8b5ce">0.69</text>
<path d="M78,195.0h425" stroke="#30374d"/>
<text x="26" y="200.0" font-family="sans-serif" font-size="13" fill="#b8b5ce">0.92</text>
<path d="M78,137.0h425" stroke="#30374d"/>
<text x="26" y="142.0" font-family="sans-serif" font-size="13" fill="#b8b5ce">1.15</text>
<text x="26" y="127" font-family="sans-serif" font-size="14" fill="#b8b5ce">ms</text>
<text x="74.0" y="453" font-family="sans-serif" font-size="13" fill="#b8b5ce">0</text>
<text x="172.0769230769231" y="453" font-family="sans-serif" font-size="13" fill="#b8b5ce">3</text>
<text x="270.1538461538462" y="453" font-family="sans-serif" font-size="13" fill="#b8b5ce">6</text>
<text x="368.2307692307692" y="453" font-family="sans-serif" font-size="13" fill="#b8b5ce">9</text>
<text x="499.0" y="453" font-family="sans-serif" font-size="13" fill="#b8b5ce">13</text>
<text x="218" y="480" font-family="sans-serif" font-size="15" fill="#b8b5ce">Pair index</text>
<circle cx="78.0" cy="425.8349565217391" r="3" fill="#b89aff"/>
<rect x="75.0" y="157.6831652173913" width="6" height="6" fill="#b89aff"/>
<rect x="107.6923076923077" y="158.03898260869565" width="6" height="6" fill="#b89aff"/>
<circle cx="110.6923076923077" cy="426.69991304347826" r="3" fill="#b89aff"/>
<circle cx="143.3846153846154" cy="426.9117391304348" r="3" fill="#b89aff"/>
<rect x="140.3846153846154" y="158.48507826086953" width="6" height="6" fill="#b89aff"/>
<rect x="173.0769230769231" y="158.60107826086954" width="6" height="6" fill="#b89aff"/>
<circle cx="176.0769230769231" cy="426.8613043478261" r="3" fill="#b89aff"/>
<circle cx="208.76923076923077" cy="426.91678260869566" r="3" fill="#b89aff"/>
<rect x="205.76923076923077" y="158.81315652173907" width="6" height="6" fill="#b89aff"/>
<rect x="238.46153846153845" y="158.62377391304346" width="6" height="6" fill="#b89aff"/>
<circle cx="241.46153846153845" cy="426.901652173913" r="3" fill="#b89aff"/>
<circle cx="274.1538461538462" cy="426.92686956521743" r="3" fill="#b89aff"/>
<rect x="271.1538461538462" y="158.38420869565215" width="6" height="6" fill="#b89aff"/>
<rect x="303.8461538461538" y="158.68706956521737" width="6" height="6" fill="#b89aff"/>
<circle cx="306.8461538461538" cy="426.901652173913" r="3" fill="#b89aff"/>
<circle cx="339.53846153846155" cy="426.9293913043478" r="3" fill="#b89aff"/>
<rect x="336.53846153846155" y="158.7347304347826" width="6" height="6" fill="#b89aff"/>
<rect x="369.2307692307692" y="158.7473391304348" width="6" height="6" fill="#b89aff"/>
<circle cx="372.2307692307692" cy="426.90417391304345" r="3" fill="#b89aff"/>
<circle cx="404.9230769230769" cy="426.92686956521743" r="3" fill="#b89aff"/>
<rect x="401.9230769230769" y="158.7274173913043" width="6" height="6" fill="#b89aff"/>
<rect x="434.61538461538464" y="158.82551304347822" width="6" height="6" fill="#b89aff"/>
<circle cx="437.61538461538464" cy="426.8915652173913" r="3" fill="#b89aff"/>
<circle cx="470.3076923076923" cy="426.92686956521743" r="3" fill="#b89aff"/>
<rect x="467.3076923076923" y="158.80811304347824" width="6" height="6" fill="#b89aff"/>
<rect x="500.0" y="158.853252173913" width="6" height="6" fill="#b89aff"/>
<circle cx="503.0" cy="426.91678260869566" r="3" fill="#b89aff"/>
<circle cx="78.0" cy="426.59904347826085" r="3" fill="#51d5b3"/>
<rect x="75.0" y="158.57586086956522" width="6" height="6" fill="#51d5b3"/>
<rect x="107.6923076923077" y="158.66185217391302" width="6" height="6" fill="#51d5b3"/>
<circle cx="110.6923076923077" cy="426.90417391304345" r="3" fill="#51d5b3"/>
<circle cx="143.3846153846154" cy="426.9293913043478" r="3" fill="#51d5b3"/>
<rect x="140.3846153846154" y="158.60359999999994" width="6" height="6" fill="#51d5b3"/>
<rect x="173.0769230769231" y="158.76776521739131" width="6" height="6" fill="#51d5b3"/>
<circle cx="176.0769230769231" cy="426.90669565217394" r="3" fill="#51d5b3"/>
<circle cx="208.76923076923077" cy="426.9293913043478" r="3" fill="#51d5b3"/>
<rect x="205.76923076923077" y="158.70951304347824" width="6" height="6" fill="#51d5b3"/>
<rect x="238.46153846153845" y="158.9465565217391" width="6" height="6" fill="#51d5b3"/>
<circle cx="241.46153846153845" cy="426.8991304347826" r="3" fill="#51d5b3"/>
<circle cx="274.1538461538462" cy="426.9293913043478" r="3" fill="#51d5b3"/>
<rect x="271.1538461538462" y="158.37941739130432" width="6" height="6" fill="#51d5b3"/>
<rect x="303.8461538461538" y="158.30603478260866" width="6" height="6" fill="#51d5b3"/>
<circle cx="306.8461538461538" cy="426.7150434782609" r="3" fill="#51d5b3"/>
<circle cx="339.53846153846155" cy="426.9193043478261" r="3" fill="#51d5b3"/>
<rect x="336.53846153846155" y="158.6767304347826" width="6" height="6" fill="#51d5b3"/>
<rect x="369.2307692307692" y="161.13819999999996" width="6" height="6" fill="#51d5b3"/>
<circle cx="372.2307692307692" cy="426.9218260869565" r="3" fill="#51d5b3"/>
<circle cx="404.9230769230769" cy="426.91678260869566" r="3" fill="#51d5b3"/>
<rect x="401.9230769230769" y="158.47246956521738" width="6" height="6" fill="#51d5b3"/>
<rect x="434.61538461538464" y="158.7122869565217" width="6" height="6" fill="#51d5b3"/>
<circle cx="437.61538461538464" cy="426.83860869565217" r="3" fill="#51d5b3"/>
<circle cx="470.3076923076923" cy="426.9293913043478" r="3" fill="#51d5b3"/>
<rect x="467.3076923076923" y="158.51029565217385" width="6" height="6" fill="#51d5b3"/>
<rect x="500.0" y="158.7700347826087" width="6" height="6" fill="#51d5b3"/>
<circle cx="503.0" cy="426.9218260869565" r="3" fill="#51d5b3"/>
<text x="613" y="112" font-family="sans-serif" font-size="20" fill="#eeeaf8">Zero-wait choice, enlarged scale</text>
<path d="M613,427.0h425" stroke="#30374d"/>
<text x="561" y="432.0" font-family="sans-serif" font-size="13" fill="#b8b5ce">0.00</text>
<path d="M613,369.0h425" stroke="#30374d"/>
<text x="561" y="374.0" font-family="sans-serif" font-size="13" fill="#b8b5ce">1.00</text>
<path d="M613,311.0h425" stroke="#30374d"/>
<text x="561" y="316.0" font-family="sans-serif" font-size="13" fill="#b8b5ce">2.00</text>
<path d="M613,253.0h425" stroke="#30374d"/>
<text x="561" y="258.0" font-family="sans-serif" font-size="13" fill="#b8b5ce">3.00</text>
<path d="M613,195.0h425" stroke="#30374d"/>
<text x="561" y="200.0" font-family="sans-serif" font-size="13" fill="#b8b5ce">4.00</text>
<path d="M613,137.0h425" stroke="#30374d"/>
<text x="561" y="142.0" font-family="sans-serif" font-size="13" fill="#b8b5ce">5.00</text>
<text x="561" y="127" font-family="sans-serif" font-size="14" fill="#b8b5ce">µs</text>
<text x="609.0" y="453" font-family="sans-serif" font-size="13" fill="#b8b5ce">0</text>
<text x="707.0769230769231" y="453" font-family="sans-serif" font-size="13" fill="#b8b5ce">3</text>
<text x="805.1538461538462" y="453" font-family="sans-serif" font-size="13" fill="#b8b5ce">6</text>
<text x="903.2307692307693" y="453" font-family="sans-serif" font-size="13" fill="#b8b5ce">9</text>
<text x="1034.0" y="453" font-family="sans-serif" font-size="13" fill="#b8b5ce">13</text>
<text x="753" y="480" font-family="sans-serif" font-size="15" fill="#b8b5ce">Pair index</text>
<circle cx="613.0" cy="159.04" r="3" fill="#b89aff"/>
<circle cx="645.6923076923077" cy="357.98" r="3" fill="#b89aff"/>
<circle cx="678.3846153846154" cy="406.7" r="3" fill="#b89aff"/>
<circle cx="711.0769230769231" cy="395.1" r="3" fill="#b89aff"/>
<circle cx="743.7692307692307" cy="407.85999999999996" r="3" fill="#b89aff"/>
<circle cx="776.4615384615385" cy="404.38" r="3" fill="#b89aff"/>
<circle cx="809.1538461538462" cy="410.18" r="3" fill="#b89aff"/>
<circle cx="841.8461538461538" cy="404.38" r="3" fill="#b89aff"/>
<circle cx="874.5384615384615" cy="410.76" r="3" fill="#b89aff"/>
<circle cx="907.2307692307693" cy="404.96000000000004" r="3" fill="#b89aff"/>
<circle cx="939.9230769230769" cy="410.18" r="3" fill="#b89aff"/>
<circle cx="972.6153846153846" cy="402.06" r="3" fill="#b89aff"/>
<circle cx="1005.3076923076924" cy="410.18" r="3" fill="#b89aff"/>
<circle cx="1038.0" cy="407.85999999999996" r="3" fill="#b89aff"/>
<circle cx="613.0" cy="334.78" r="3" fill="#51d5b3"/>
<circle cx="645.6923076923077" cy="404.96000000000004" r="3" fill="#51d5b3"/>
<circle cx="678.3846153846154" cy="410.76" r="3" fill="#51d5b3"/>
<circle cx="711.0769230769231" cy="405.54" r="3" fill="#51d5b3"/>
<circle cx="743.7692307692307" cy="410.76" r="3" fill="#51d5b3"/>
<circle cx="776.4615384615385" cy="403.8" r="3" fill="#51d5b3"/>
<circle cx="809.1538461538462" cy="410.76" r="3" fill="#51d5b3"/>
<circle cx="841.8461538461538" cy="361.46000000000004" r="3" fill="#51d5b3"/>
<circle cx="874.5384615384615" cy="408.44" r="3" fill="#51d5b3"/>
<circle cx="907.2307692307693" cy="409.02" r="3" fill="#51d5b3"/>
<circle cx="939.9230769230769" cy="407.85999999999996" r="3" fill="#51d5b3"/>
<circle cx="972.6153846153846" cy="389.88" r="3" fill="#51d5b3"/>
<circle cx="1005.3076923076924" cy="410.76" r="3" fill="#51d5b3"/>
<circle cx="1038.0" cy="409.02" r="3" fill="#51d5b3"/>
<text x="78" y="530" font-family="sans-serif" font-size="15" fill="#eeeaf8">Green: root • Violet: Luna • Squares: existing 1 ms overdue wait • Circles: overdue-only 0 ms</text>
<text x="35" y="568" font-family="sans-serif" font-size="14" fill="#b8b5ce">Wall time includes scheduler behavior and clock overhead. Source hooks are stubbed; no actual NACK or RF recovery.</text>
<text x="35" y="594" font-family="sans-serif" font-size="14" fill="#b8b5ce">Future deadlines, 2.5 ms quiet gating, two request rounds and default-off polling remain unchanged.</text>
</svg>
